<svg xmlns="http://www.w3.org/2000/svg" version="1.1" xmlns:xlink="http://www.w3.org/1999/xlink" xmlns:svgjs="http://svgjs.com/svgjs" width="2000" height="1000" preserveAspectRatio="none" viewBox="0 0 2000 1000"><g mask="url(&quot;#SvgjsMask1830&quot;)" fill="none"><path d="M 0,101 C 133.4,121.2 400.2,197.2 667,202 C 933.8,206.8 1067.4,102.6 1334,125 C 1600.6,147.4 1866.8,276.2 2000,314L2000 1000L0 1000z" fill="rgba(255, 182, 0, 1)"></path><path d="M 0,591 C 200,565 600,450.2 1000,461 C 1400,471.8 1800,608.2 2000,645L2000 1000L0 1000z" fill="rgba(253, 192, 0, 1)"></path><path d="M 0,720 C 133.4,748.4 400.2,864.6 667,862 C 933.8,859.4 1067.4,684.2 1334,707 C 1600.6,729.8 1866.8,922.2 2000,976L2000 1000L0 1000z" fill="rgba(245, 255, 0, 1)"></path></g><defs><mask id="SvgjsMask1830"><rect width="2000" height="1000" fill="#ffffff"></rect></mask></defs></svg>